<svg width="165" height="48" viewBox="0 0 165 48" fill="none" xmlns="http://www.w3.org/2000/svg">
    <g clip-path="url(#clip0_855_980)">
        <path fill-rule="evenodd" clip-rule="evenodd"
            d="M61.0155 10.7713C60.4362 10.7713 60.1465 10.3371 60.1465 9.46851C60.1465 9.10098 60.1465 8.54262 60.1677 7.8005C60.1889 7.05838 60.1865 6.50238 60.1865 6.13249C60.1865 5.76261 60.1747 5.17362 60.1535 4.4527C60.1347 3.6776 60.1229 3.12159 60.1229 2.78234H59.6213C59.3308 2.78234 58.8975 2.77292 58.3213 2.75407C57.7419 2.73522 57.3086 2.72579 57.0189 2.72579H56.668C56.7175 3.26295 56.7434 3.86136 56.7434 4.53045C56.7434 4.9074 56.7316 5.47361 56.7081 6.22909C56.6845 6.98456 56.6727 7.55155 56.6727 7.93007C56.6727 8.84182 56.5079 9.51798 56.1758 9.95148C55.7802 10.4792 55.0948 10.7431 54.1292 10.7431C54.0152 10.7469 53.9015 10.7281 53.7947 10.6877C53.688 10.6472 53.5904 10.586 53.5075 10.5075C53.4257 10.4311 53.361 10.3384 53.3175 10.2352C53.2741 10.1321 53.253 10.0209 53.2555 9.90907C53.2407 9.77889 53.2624 9.64716 53.3181 9.52859C53.3739 9.41002 53.4614 9.30928 53.5711 9.23762C53.8074 9.15555 54.0524 9.101 54.3011 9.07506C54.459 9.05785 54.6053 8.98424 54.7133 8.86774C54.8853 8.58532 54.9606 8.25445 54.9276 7.92537C54.9276 7.54841 54.9394 6.98142 54.9629 6.22437C54.9865 5.46812 54.9959 4.90033 54.9959 4.52574C55.0032 3.77505 54.9575 3.02479 54.8593 2.28052C54.7886 2.15556 54.7521 2.01417 54.7533 1.87059C54.7506 1.76156 54.77 1.65312 54.8105 1.55186C54.851 1.4506 54.9117 1.35865 54.9888 1.2816C55.0705 1.20281 55.1673 1.14133 55.2733 1.10085C55.3794 1.06037 55.4925 1.04172 55.6059 1.04601C55.7629 1.04601 55.9984 1.05543 56.3124 1.07428C56.6256 1.09313 56.8611 1.10255 57.0189 1.10255H60.9873C61.2202 1.0961 61.4466 1.18059 61.6184 1.33814C61.7042 1.41219 61.7727 1.50415 61.8191 1.60754C61.8654 1.71093 61.8886 1.82324 61.8869 1.93656C61.8869 2.75407 61.9034 3.99329 61.9364 5.64246C61.9693 7.29162 61.9858 8.53084 61.9858 9.35071C61.9858 10.2931 61.6608 10.7643 61.0132 10.7643L61.0155 10.7713ZM75.6477 11.0069C74.4998 11.0412 73.3772 10.6663 72.4801 9.94912C72.0334 9.59806 71.6747 9.14756 71.4327 8.63344C71.1907 8.11933 71.0719 7.5558 71.0859 6.9877C71.0815 5.57605 71.5527 4.2041 72.4236 3.09332C73.4253 1.77399 74.6813 1.11433 76.1917 1.11433C77.655 1.11433 78.7541 1.44966 79.4888 2.12032C80.2236 2.79098 80.5887 3.79775 80.584 5.14064C80.5948 6.52758 80.1634 7.88186 79.3522 9.00674C78.4102 10.3433 77.1754 11.0117 75.6477 11.0117V11.0069ZM76.2035 2.8059C75.2709 2.8059 74.4709 3.25902 73.8036 4.16528C73.1905 4.97459 72.8595 5.96276 72.8616 6.97827C72.854 7.30538 72.9236 7.62968 73.0647 7.92483C73.2059 8.21997 73.4147 8.47765 73.6741 8.67691C74.2365 9.10878 74.9321 9.33045 75.6406 9.30359C76.5591 9.30359 77.3292 8.85125 77.9439 7.94657C78.5104 7.11826 78.8066 6.13475 78.7917 5.13122C78.7917 4.25245 78.5939 3.64226 78.203 3.29593C77.812 2.94961 77.1549 2.8059 76.1964 2.8059H76.2035ZM91.7659 5.65894C91.5775 6.33746 91.3137 7.36229 90.9746 8.73345C90.8922 9.20464 90.8145 9.67583 90.7391 10.147C90.5672 10.7407 90.2516 11.0399 89.7971 11.0399C89.6681 11.0459 89.5395 11.0222 89.4212 10.9708C89.3028 10.9193 89.1977 10.8414 89.1141 10.7431C88.9715 10.5777 88.8951 10.3654 88.8998 10.147C88.9271 9.30383 89.073 8.4687 89.3331 7.66621C89.7633 6.20238 89.9949 5.39115 90.0279 5.23252C90.1503 4.58699 90.2744 3.94146 90.4 3.29593C90.5884 2.40853 90.7925 1.81719 91.0123 1.52191C91.1043 1.38532 91.2284 1.27347 91.3738 1.19623C91.5192 1.11899 91.6814 1.07873 91.846 1.07899C92.0288 1.07698 92.2077 1.13129 92.3586 1.23456C92.5094 1.33783 92.6248 1.48504 92.6891 1.6562C92.8563 2.01901 93.0353 2.76585 93.2284 3.89199C93.4334 5.08497 93.7078 6.26495 94.0504 7.4259C94.5214 6.18196 94.9649 4.8163 95.381 3.32892L95.7319 1.88237C95.958 1.28396 96.3081 0.984752 96.7823 0.984752C97.2564 0.984752 97.5956 1.33186 97.7997 2.02608C97.9379 2.54169 98.0371 3.06698 98.0964 3.59749C98.2855 5.14868 98.587 6.68408 98.9984 8.19158C99.3705 9.48735 99.5566 10.1941 99.5566 10.3119C99.5575 10.4313 99.5313 10.5494 99.4799 10.6571C99.4285 10.7649 99.3532 10.8595 99.2598 10.9339C99.0881 11.0854 98.8671 11.1692 98.6381 11.1695C98.1843 11.1695 97.846 10.842 97.623 10.1871L97.2721 8.66749C97.0696 7.91358 96.8514 6.83064 96.6174 5.41864C96.429 5.97936 96.115 6.86126 95.6754 8.06436L95.3009 9.22113C95.1733 9.6103 95.0109 9.9872 94.8158 10.3473C94.7321 10.5224 94.6005 10.6703 94.4363 10.7737C94.2721 10.8771 94.0819 10.9318 93.8879 10.9315C93.4922 10.9315 93.1931 10.696 92.9812 10.2248L92.6302 9.04679C92.3052 7.97562 92.0124 6.8487 91.7518 5.66602L91.7659 5.65894ZM111.064 10.7124C110.866 10.7124 110.593 10.7124 110.253 10.6865C109.858 10.6677 109.589 10.6583 109.443 10.6535C109.353 10.6789 109.259 10.6916 109.165 10.6912C108.55 10.6912 108.242 10.2601 108.242 9.39783C108.242 9.28475 108.273 8.92664 108.329 8.3353C108.407 7.60038 108.447 6.86203 108.449 6.12307C108.449 5.72256 108.428 5.12179 108.388 4.32548C108.348 3.52917 108.325 2.93076 108.325 2.5279C108.299 2.18838 108.342 1.84724 108.449 1.52427C108.595 1.24391 108.92 1.10255 109.443 1.10255C109.757 1.10255 110.228 1.09548 110.856 1.08135C111.484 1.06721 111.961 1.05936 112.286 1.05779H113.868C113.983 1.054 114.097 1.07286 114.204 1.11329C114.311 1.15373 114.409 1.21493 114.493 1.29338C114.648 1.45003 114.735 1.66173 114.735 1.88237C114.735 2.103 114.648 2.3147 114.493 2.47135C114.324 2.62914 114.099 2.71381 113.868 2.70695C113.412 2.70695 112.156 2.72187 110.1 2.75171C110.122 3.2763 110.154 3.8488 110.194 4.4692C110.414 4.4692 110.593 4.45506 110.736 4.45506C112.068 4.45506 113.047 4.65374 113.675 5.05111C114.467 5.54822 114.853 6.4152 114.853 7.6615C114.853 8.71696 114.468 9.50227 113.699 10.0174C113.039 10.4651 112.156 10.6897 111.047 10.6912L111.064 10.7124ZM111.009 6.12071C110.807 6.12071 110.538 6.12071 110.225 6.15134C110.225 6.24322 110.225 6.33746 110.225 6.43877C110.225 6.89111 110.177 7.75495 110.081 9.0303C110.475 9.0303 110.788 9.04208 111.054 9.04208C112.425 9.04208 113.109 8.58425 113.108 7.66857C113.108 7.03011 112.933 6.60368 112.58 6.38693C112.294 6.20317 111.768 6.11129 111.002 6.11129L111.009 6.12071ZM130.608 10.8185C130.279 10.8067 129.944 10.4156 129.61 9.64049C129.368 9.08954 129.177 8.51787 129.038 7.93243C128.729 7.9772 128.223 8.02431 127.516 8.06908C126.857 8.1162 126.351 8.17038 126 8.23164C125.806 8.6934 125.471 9.38683 124.994 10.3119C124.92 10.4503 124.81 10.5657 124.675 10.6455C124.54 10.7252 124.385 10.7663 124.228 10.7643C123.999 10.7657 123.778 10.6817 123.607 10.5287C123.517 10.4567 123.446 10.365 123.398 10.2608C123.349 10.1566 123.326 10.0427 123.329 9.92792C123.329 9.71588 123.635 8.99182 124.247 7.75574C124.191 7.64256 124.164 7.51691 124.17 7.39056C124.186 7.19031 124.391 7.03246 124.78 6.91938C125.375 5.88904 126.036 4.82101 126.765 3.71529C127.811 2.12738 128.455 1.33343 128.698 1.33343C129.16 1.33343 129.468 1.61222 129.622 2.16979C129.706 2.61742 129.839 3.28965 130.02 4.18648C130.274 5.39272 130.588 6.77331 130.962 8.32823C131.054 8.60922 131.161 8.88523 131.282 9.15517C131.409 9.40979 131.488 9.68511 131.517 9.96797C131.52 10.0835 131.496 10.1981 131.449 10.3036C131.402 10.4091 131.332 10.5029 131.244 10.5782C131.162 10.6569 131.065 10.7183 130.958 10.7588C130.852 10.7993 130.739 10.818 130.625 10.8138L130.608 10.8185ZM128.253 4.3726C127.925 4.93332 127.475 5.69743 126.904 6.66493C127.194 6.61036 127.487 6.57651 127.782 6.56363C128.253 6.53536 128.548 6.5118 128.668 6.49531C128.567 5.95108 128.432 5.24194 128.253 4.37496V4.3726ZM142.996 7.12199C142.926 7.12199 142.749 7.1055 142.469 7.07722C142.445 7.66464 142.433 8.62822 142.433 9.96797C142.434 10.0758 142.413 10.1826 142.372 10.2822C142.33 10.3817 142.269 10.472 142.192 10.5475C142.116 10.6231 142.024 10.6825 141.924 10.7221C141.824 10.7618 141.717 10.7809 141.609 10.7784C141.499 10.7818 141.39 10.7627 141.288 10.7222C141.186 10.6816 141.093 10.6206 141.016 10.5428C140.939 10.4684 140.879 10.3793 140.839 10.2809C140.798 10.1824 140.778 10.0768 140.78 9.97032V8.2175C140.78 7.56726 140.822 6.60525 140.905 5.33147C140.985 4.0357 141.025 3.07212 141.03 2.43366C141.03 1.34521 141.336 0.824549 141.948 0.871668C142.141 0.824135 142.338 0.79495 142.537 0.784499C142.79 0.765652 143.096 0.756226 143.455 0.756226C144.293 0.761604 145.106 1.04223 145.768 1.55489C146.566 2.14859 146.965 2.87344 146.967 3.72943C146.982 4.22788 146.873 4.72225 146.651 5.16861C146.428 5.61496 146.099 5.99948 145.693 6.28798C144.909 6.85361 143.962 7.14658 142.996 7.12199ZM143.309 2.37712H142.956C142.869 2.37802 142.782 2.38352 142.695 2.39361C142.695 2.59151 142.695 2.88364 142.695 3.27944C142.695 3.75063 142.648 4.45741 142.577 5.45398C142.718 5.47907 142.86 5.49559 143.003 5.50346C143.582 5.52553 144.153 5.36029 144.631 5.03227C144.847 4.88972 145.024 4.69458 145.145 4.46509C145.265 4.2356 145.326 3.97925 145.321 3.72C145.321 3.36426 145.104 3.0462 144.673 2.77763C144.27 2.51268 143.798 2.37328 143.316 2.37712H143.309ZM163.728 11.3297C163.729 11.4226 163.736 11.5154 163.747 11.6077C163.759 11.7326 163.766 11.8245 163.766 11.8881C163.768 11.9999 163.747 12.111 163.703 12.2141C163.66 12.3172 163.595 12.41 163.514 12.4865C163.343 12.645 163.117 12.7297 162.885 12.7221C162.722 12.7356 162.559 12.6973 162.419 12.6127C162.279 12.5281 162.169 12.4015 162.105 12.2509C162.002 11.9544 161.958 11.6408 161.974 11.3273C161.974 11.1766 161.985 10.9716 162.011 10.7124C161.498 10.7124 160.546 10.7211 159.157 10.7384C157.767 10.7556 156.817 10.7619 156.305 10.7572C156.291 11.3273 156.284 11.6807 156.284 11.8197C156.288 11.9301 156.27 12.0401 156.229 12.1428C156.189 12.2455 156.127 12.3385 156.048 12.4158C155.876 12.5688 155.653 12.6533 155.423 12.6533C155.192 12.6533 154.97 12.5688 154.798 12.4158C154.717 12.3393 154.653 12.2468 154.61 12.1442C154.567 12.0415 154.546 11.931 154.548 11.8197C154.548 11.6336 154.548 11.3486 154.562 10.9904C154.576 10.6323 154.562 10.3449 154.562 10.1612C154.543 10.0881 154.528 10.0142 154.517 9.9397C154.517 9.51327 154.821 9.23291 155.422 9.12219C156.267 7.28692 156.693 5.28601 156.667 3.26531C156.659 3.0369 156.635 2.80937 156.594 2.58444C156.555 2.36646 156.531 2.14606 156.521 1.92478C156.521 1.37348 156.919 1.09313 157.716 1.0837L160.907 1.07192L161.879 1.03423C162.015 0.961991 162.166 0.925501 162.32 0.928212C162.551 0.920975 162.777 1.00566 162.946 1.16381C163.028 1.2397 163.093 1.33206 163.136 1.43481C163.179 1.53755 163.201 1.64834 163.198 1.75986C163.198 2.18393 163.204 2.81611 163.217 3.65639C163.231 4.49511 163.236 5.1265 163.236 5.54115C163.236 6.25264 163.213 7.45339 163.168 9.14339L163.217 9.1693C163.396 9.20754 163.556 9.30953 163.666 9.45638C163.776 9.60323 163.829 9.78498 163.815 9.96797C163.815 10.1164 163.801 10.3449 163.77 10.6441C163.74 10.9433 163.728 11.1719 163.728 11.325V11.3297ZM161.453 2.74229C161.218 2.74229 160.9 2.74229 160.511 2.74229L159.569 2.73051C159.303 2.73051 158.919 2.73051 158.42 2.74936V3.29593C158.409 4.25071 158.317 5.20283 158.144 6.14191C157.985 7.13428 157.718 8.1061 157.346 9.03973C157.641 9.03973 158.106 9.02716 158.742 9.00203C159.35 8.98161 159.816 8.97062 160.141 8.96905C160.424 8.96905 160.848 8.96905 161.406 9.00203C161.406 8.62979 161.42 8.05808 161.448 7.2869C161.475 6.56598 161.488 5.98564 161.486 5.54586C161.484 5.38566 161.473 4.45349 161.453 2.74936V2.74229Z"
            fill="#31307A" stroke="white" stroke-width="0.421472" stroke-miterlimit="22.93" />
        <path fill-rule="evenodd" clip-rule="evenodd"
            d="M73.924 18.9395C72.982 18.8547 71.5689 13.7565 62.7797 14.2277C57.3913 14.5198 52.2218 16.9252 52.2148 22.1154L52.1865 38.8426C52.1865 42.4754 55.0126 45.0646 57.7775 46.497C59.6828 47.4841 67.6571 48.8671 70.4479 45.5216C71.1544 44.6735 68.0339 47.192 72.2943 47.1708L136.445 46.8645C139.247 46.8504 141.678 45.0293 143.307 42.2822C143.456 42.0301 143.835 47.5289 153.175 47.7009C163.474 47.887 164.849 41.811 164.892 36.8636L165 24.1909C165.028 20.7112 162.376 14.6423 154.063 14.4632C149.925 14.3737 147.589 15.3279 145.761 16.4093C144.902 16.9181 146.6 14.6517 143.133 14.6706L74.7412 15.0852C73.7615 15.0852 74.0794 18.1197 73.9358 18.9395H73.924ZM126.713 37.7871C126.193 37.7659 126.127 37.6528 126.108 37.0662L125.833 27.9534C125.757 25.4702 126.122 25.9508 126.471 27.6259L128.437 37.1015C128.522 37.5091 128.595 37.7635 128.131 37.7777C127.889 37.7847 127.135 37.8012 126.713 37.7847V37.7871Z"
            fill="#31307A" />
        <path fill-rule="evenodd" clip-rule="evenodd"
            d="M13.0618 8.70906C12.9063 8.97528 11.7335 7.97636 10.6054 7.25073C9.89887 6.79132 8.86027 6.77955 7.85465 7.41565C5.61731 8.82922 2.82417 11.3619 0.746985 16.2929C-0.117334 18.3496 0.0404576 19.7844 0.023972 20.6843C-0.0702317 28.2516 0.158212 37.2395 0.11582 40.8159C0.0739716 41.1515 0.127858 41.492 0.271257 41.7983C0.728145 42.8891 8.68129 46.3429 10.3534 47.151C12.0255 47.9591 12.1762 48.0368 13.8013 46.529C15.5134 44.9435 19.8185 41.4143 19.7832 40.029C19.8232 36.8225 19.656 29.2435 19.7149 22.7458C19.7502 18.7972 18.5892 14.5777 16.9948 12.9074C16.8016 12.8108 17.3527 11.2794 20.8194 11.1451C23.41 11.0438 25.36 12.2807 24.8749 12.7943C23.2263 14.54 22.1359 18.4862 22.2254 22.7646C22.3573 29.1139 22.2843 36.5021 22.2914 40.0455C22.2914 41.5957 28.2921 46.7057 28.8668 47.1133C30.4824 48.2606 29.863 48.19 31.3349 47.5115C31.9708 46.9672 39.3705 43.0352 40.7176 41.9962C41.589 41.3224 41.523 41.1857 41.5183 40.1303C41.4971 35.2511 41.7209 24.64 41.5748 21.1249C41.5372 20.2697 41.2286 17.8902 40.6045 16.2104C39.5542 13.3833 37.2156 9.83756 34.1092 7.69836C32.9623 6.90912 31.9896 6.2848 30.5766 7.40858C29.8583 7.97637 29.1635 8.58656 29.0552 8.49467C28.2191 7.73606 27.1052 4.05136 23.5042 1.27842C21.4883 -0.271793 21.2881 -0.431997 19.1662 0.932094C15.5087 3.28804 14.1145 6.9209 13.057 8.70671L13.0618 8.70906ZM31.1724 37.8285V20.7314C31.1724 19.4404 33.3862 22.0154 33.4239 28.2139C33.4757 36.8979 31.1606 38.7332 31.163 37.8285H31.1724ZM10.5088 37.6777C10.5088 38.5801 8.19614 36.7354 8.24795 28.0608C8.28328 21.8623 10.4971 19.2872 10.4971 20.5783L10.5088 37.6777Z"
            fill="#2F336C" />
        <path fill-rule="evenodd" clip-rule="evenodd"
            d="M9.03512 44.8784C6.63528 43.8654 2.12293 41.8605 2.12293 40.6919C2.12293 35.4052 1.82383 26.3607 1.96985 20.0916C2.08525 15.1841 7.11101 9.06102 9.57444 8.97621C10.3917 8.94794 18.0904 12.8494 18.0763 20.3507L18.0433 38.7459C18.0433 40.282 18.4013 40.2702 17.3604 41.2786L13.7288 44.7983C12.6996 45.7949 12.1462 45.6512 12.2687 43.7052C12.556 39.1606 12.3723 23.5925 12.2851 18.9042C12.1226 10.2319 18.6674 1.34531 21.0908 1.47017C23.1798 1.39949 29.296 8.59219 29.6775 18.5201C29.913 24.41 29.4067 39.7472 29.5527 43.9266C29.6186 45.8114 28.9498 45.5263 28.1844 44.7559L24.7083 41.2597C23.6626 40.2066 24.0135 40.3927 24.0135 38.8684V20.3036C24.0135 16.1171 29.6916 8.80658 31.6511 8.80187C34.1239 8.80187 39.0036 13.9543 39.4229 19.512C39.7643 24.1202 39.8067 36.1921 39.5971 40.6566C39.2651 41.4576 35.5158 43.4295 33.0641 44.6452C30.2875 46.0187 30.775 46.153 31.7617 43.2623C33.4503 38.3148 36.0315 30.5001 35.1931 25.3382C33.5846 15.4291 25.5679 9.55342 20.6292 9.55342C15.1277 9.57462 8.19436 16.4822 6.63293 24.2875C5.47187 30.0925 6.65648 37.502 10.1656 43.5591C11.5551 45.9551 11.6257 45.9787 9.03512 44.8784Z"
            fill="#2F336C" stroke="white" stroke-width="1.2307" stroke-miterlimit="22.93" />
        <path fill-rule="evenodd" clip-rule="evenodd"
            d="M72.8075 42.4611C72.4825 44.4283 73.62 44.2846 74.0863 44.32C74.3407 44.3388 79.3099 44.3365 80.1036 44.3553C80.942 44.3765 81.4507 44.459 81.486 42.8616C81.5072 41.7873 81.559 40.4279 81.5426 39.5633C81.5426 39.1157 83.3489 39.0215 83.4643 39.4974C83.648 40.2489 83.6127 41.5635 83.6998 42.7957C83.7634 43.738 83.86 44.433 85.2118 44.4118C85.8194 44.4118 88.7797 44.4118 90.5343 44.4118C91.9473 44.4118 92.0227 44.1975 91.6883 42.1596L88.0002 19.6579C87.7459 18.1054 87.2301 17.2007 86.9781 17.1913C84.4746 17.0853 79.0438 17.1606 77.9605 17.0782C77.0396 17.0075 76.8606 17.9146 76.6086 19.4341L72.8075 42.4611ZM82.3244 27.2064L83.3183 32.2434C83.8341 34.8585 83.4855 34.6606 82.4116 34.6559C81.2882 34.6559 80.7983 34.8514 81.3023 32.3259L82.3244 27.2064Z"
            fill="#1D906D" stroke="white" stroke-width="1.43581" stroke-miterlimit="22.93" />
        <path fill-rule="evenodd" clip-rule="evenodd"
            d="M94.0527 17.2808C95.0819 17.3302 97.6443 17.2996 98.5039 17.309C100.805 17.3326 100.388 17.6789 100.402 19.2433L100.421 26.4171C100.421 27.0344 102.371 27.0061 102.378 26.4171L102.449 19.2056C102.545 17.7331 102.253 17.3609 103.412 17.3397C103.525 17.3397 107.234 17.3397 108.4 17.3397C108.986 17.3397 109.681 17.1441 109.698 18.8451L109.912 41.1111C109.933 43.2315 110.082 44.433 108.499 44.4778C107.474 44.5037 105.623 44.5603 104.182 44.5084C102.131 44.433 102.329 43.4506 102.321 43.0077C102.293 41.3255 102.376 35.9728 102.378 33.6263C102.378 32.9195 100.404 32.7664 100.383 33.5415C100.324 35.5818 100.353 40.5292 100.36 42.8852C100.36 43.9383 100.277 44.5343 98.1977 44.466C97.1049 44.433 95.9462 44.4801 94.479 44.4825C93.3721 44.4825 92.6491 44.4637 92.6067 43.1985C92.416 37.6314 92.821 19.8063 92.8234 19.0148C92.8352 17.8274 92.4819 17.203 94.0527 17.2808Z"
            fill="#1D906D" stroke="white" stroke-width="1.43581" stroke-miterlimit="22.93" />
        <path fill-rule="evenodd" clip-rule="evenodd"
            d="M111.572 17.1937C110.76 17.1937 110.809 17.2149 110.809 17.9194V22.5936C110.809 22.7679 110.677 23.0789 111.24 23.0859L114.787 23.1283C115.202 23.1283 115.223 23.2367 115.22 23.3639L115.484 44.1905C115.484 44.4968 123.188 44.4261 123.188 44.1905L123.143 23.4063C123.181 23.1943 122.973 23.06 123.63 23.0553C124.101 23.0553 125.491 23.0765 126.626 23.0553C127.015 23.0553 127.333 23.0695 127.333 22.6878V17.5754C127.333 17.1254 127.208 17.2361 126.862 17.2361C124.775 17.2361 111.652 17.1937 111.572 17.1937Z"
            fill="#1D906D" stroke="white" stroke-width="1.43581" stroke-miterlimit="22.93" />
        <path fill-rule="evenodd" clip-rule="evenodd"
            d="M65.1699 29.593C65.8576 29.593 69.7977 29.6095 71.1424 29.5742C72.6992 29.5318 72.5908 29.0299 72.6238 27.7978C72.7368 23.6325 72.4283 16.5646 63.9735 16.7248C58.8607 16.8191 54.8052 18.6873 54.7181 23.2532L54.4354 37.7069C54.3459 42.4188 58.7029 45.1469 63.5284 45.1469C69.9531 45.1469 72.7627 41.0099 72.5555 34.6983C72.5131 33.4167 72.9252 32.9809 71.1825 32.9903C70.8057 32.9903 69.1312 32.9903 65.8576 32.9903C64.5647 32.9903 64.169 32.9903 64.1902 34.4038C64.2067 35.5818 64.1243 37.4124 64.1007 38.694C64.0819 39.7306 62.5605 39.6128 62.5652 38.6775C62.577 36.1732 62.7489 25.4041 62.6877 23.1683C62.65 21.7548 64.169 22.0022 64.1667 23.0623C64.1667 26.5468 64.1667 27.0462 64.1667 28.0428C64.1572 29.2467 64.2208 29.5954 65.1699 29.593Z"
            fill="#1D906D" stroke="white" stroke-width="1.43581" stroke-miterlimit="22.93" />
        <path fill-rule="evenodd" clip-rule="evenodd"
            d="M128.277 17.156L132.205 17.1725C133.635 17.1725 133.854 17.0995 134.16 19.0973L135.945 30.3941L136.581 19.135C136.673 17.5094 137.144 17.1584 138.427 17.156H142.24C143.54 17.156 143.74 17.9547 143.623 19.0054L141.425 38.6422C141.07 41.8322 139.678 44.2965 136.456 44.2824L128.672 44.2305C128.437 44.2305 128.23 40.0982 128.661 40.0982C129.16 40.0982 130.681 40.2772 131.117 39.8626C131.475 39.5186 131.049 38.7247 130.834 37.5231L127.549 19.1256C127.375 18.195 127.415 17.1537 128.277 17.156Z"
            fill="#1D906D" stroke="white" stroke-width="1.43581" stroke-miterlimit="22.93" />
        <path fill-rule="evenodd" clip-rule="evenodd"
            d="M155.049 29.5271C155.737 29.5271 159.675 29.5459 161.022 29.5082C162.579 29.4658 162.468 28.9664 162.503 27.7319C162.616 23.5666 162.308 16.4987 153.851 16.6589C148.738 16.7555 144.685 18.6214 144.595 23.1872L144.315 37.641C144.223 42.3528 148.582 45.081 153.406 45.081C159.83 45.081 162.64 40.9463 162.435 34.6324C162.393 33.3531 162.802 32.9149 161.062 32.9244C160.685 32.9244 159.008 32.9244 155.735 32.9244C154.442 32.9244 154.046 32.9244 154.067 34.3379C154.084 35.5159 154.001 37.3441 153.98 38.6257C153.961 39.6647 152.44 39.5469 152.442 38.6093C152.456 36.1049 152.626 25.3359 152.567 23.1001C152.529 21.6865 154.049 21.9339 154.046 22.9941C154.046 26.4785 154.046 26.978 154.046 27.9769C154.032 29.1808 154.093 29.5294 155.049 29.5271Z"
            fill="#1D906D" stroke="white" stroke-width="1.43581" stroke-miterlimit="22.93" />
    </g>
    <defs>
        <clipPath id="clip0_855_980">
            <rect width="165" height="48" fill="white" />
        </clipPath>
    </defs>
</svg>